<?xml version="1.0" encoding="UTF-8" standalone="no"?>
<!-- Created with Inkscape (http://www.inkscape.org/) -->

<svg
   xmlns:dc="http://purl.org/dc/elements/1.1/"
   xmlns:cc="http://creativecommons.org/ns#"
   xmlns:rdf="http://www.w3.org/1999/02/22-rdf-syntax-ns#"
   xmlns:svg="http://www.w3.org/2000/svg"
   xmlns="http://www.w3.org/2000/svg"
   xmlns:sodipodi="http://sodipodi.sourceforge.net/DTD/sodipodi-0.dtd"
   xmlns:inkscape="http://www.inkscape.org/namespaces/inkscape"
   width="210mm"
   height="297mm"
   viewBox="0 0 744.09448819 1052.3622047"
   id="svg4231"
   version="1.1"
   inkscape:version="0.91 r13725"
   sodipodi:docname="LOGO_modelEAU_2016.svg">
  <defs
     id="defs4233">
    <clipPath
       clipPathUnits="userSpaceOnUse"
       id="clipPath4216">
      <rect
         style="fill:#ffffff;fill-opacity:1"
         id="rect4218"
         width="2805.7998"
         height="1516.037"
         x="1635.7679"
         y="880.14691" />
    </clipPath>
  </defs>
  <sodipodi:namedview
     id="base"
     pagecolor="#ffffff"
     bordercolor="#666666"
     borderopacity="1.0"
     inkscape:pageopacity="0.0"
     inkscape:pageshadow="2"
     inkscape:zoom="0.35"
     inkscape:cx="-146.42857"
     inkscape:cy="520"
     inkscape:document-units="px"
     inkscape:current-layer="layer1"
     showgrid="false"
     inkscape:window-width="1600"
     inkscape:window-height="837"
     inkscape:window-x="-8"
     inkscape:window-y="-8"
     inkscape:window-maximized="1" />
  <metadata
     id="metadata4236">
    <rdf:RDF>
      <cc:Work
         rdf:about="">
        <dc:format>image/svg+xml</dc:format>
        <dc:type
           rdf:resource="http://purl.org/dc/dcmitype/StillImage" />
        <dc:title></dc:title>
      </cc:Work>
    </rdf:RDF>
  </metadata>
  <g
     inkscape:label="Calque 1"
     inkscape:groupmode="layer"
     id="layer1">
    <path
       inkscape:connector-curvature="0"
       id="path3051"
       d="m -51.47955,834.264 c 1.048,-2.8915 29.982,-85.35729 64.2979,-183.25729 l 62.3924,-178.00005 64.5097,-0.2573 64.5096,-0.2573 -2.952,8.2573 c -1.6236,4.5415 -30.5638,87.0073 -64.3115,183.25735 l -61.3596,174.99999 -64.4959,0.2573 -64.4959,0.2572 z m 140.8922,2.8517 c 6.716,-6.4822 177.2391,-156.68059 177.5403,-156.37929 0.1919,0.1918 -12.1189,35.9843 -27.3571,79.5388 l -27.7059,79.18999 -62.4773,0.021 -62.4772,0.021 2.4772,-2.391 z m 137.9773,1.7828 c 0,-1.514 175.5302,-302.25024 175.7668,-301.14174 0.1468,0.6874 -4.8919,33.4249 -11.1971,72.7499 -6.3052,39.32505 -11.116,71.84935 -10.6906,72.27635 0.4254,0.4269 7.9353,0.6519 16.6888,0.5 l 15.9153,-0.2763 16.79,-104.94835 c 9.2346,-57.7216 16.9292,-105.0875 17.0992,-105.2574 0.17,-0.17 29.0994,-0.1933 64.2875,-0.052 l 63.9784,0.2574 -29.2992,183.00005 c -16.1146,100.65 -29.3082,183.11249 -29.3192,183.24999 -0.011,0.1375 -28.9608,0.25 -64.333,0.25 l -64.3131,0 10.1184,-62.99999 10.1184,-63 -16.8053,0 c -9.2429,0 -16.8053,0.149 -16.8053,0.3311 0,0.1821 -4.5,28.3831 -10,62.6689 -5.5,34.2858 -10,62.48679 -10,62.66889 0,0.1821 -28.8,0.3311 -64,0.3311 -35.2,0 -64,-0.2737 -64,-0.6082 z m 371.5,-0.8893 c -26.4814,-4.9823 -44.8367,-22.38129 -50.1133,-47.50249 -2.2338,-10.6348 -1.3835,-30.5672 1.7804,-41.7343 1.2831,-4.5289 23.4829,-68.535 49.3329,-142.23575 l 47,-134.0014 64.35705,-0.014 c 51.0499,-0.011 64.2694,0.2441 63.9332,1.2357 -0.233,0.6875 -29.1612,83.2625 -64.2847,183.50005 l -63.86105,182.24999 -20.5722,-0.09 c -12.41,-0.054 -23.3496,-0.6128 -27.5723,-1.4073 z m 70.62505,0.7047 c 0.2062,-0.5736 29.175,-83.19739 64.375,-183.60849 l 64,-182.56585 64.3666,-0.016 c 60.8271,-0.016 64.3396,0.08 63.8739,1.7336 -1.5576,5.5311 -94.1161,268.29125 -96.6563,274.39315 -14.1744,34.0483 -47.8563,66.9409 -83.3635,81.40949 -18.0272,7.3458 -25.4084,8.6364 -52.5957,9.1958 -16.6944,0.3436 -24.2568,0.173 -24,-0.5412 z M 175.09915,690.86841 c -12.5213,-21.2511 -22.6407,-38.7431 -22.4876,-38.8711 2.0689,-1.7304 98.5843,-76.27805 99.3733,-76.75505 0.6021,-0.364 -7.6266,24.184 -18.2862,54.5513 -10.6595,30.36725 -22.8522,65.21995 -27.0948,77.45035 -4.2427,12.2305 -7.9445,22.243 -8.2263,22.25 -0.2818,0.01 -10.7571,-17.3744 -23.2784,-38.6255 z m 77.1334,-146.13035 -36.6573,-71.7314 62.0664,-0.2577 c 34.1365,-0.1416 62.1891,-0.1349 62.3391,0.015 0.4352,0.4353 -49.985,143.7446 -50.5661,143.724 -0.2886,-0.01 -17.0205,-32.2977 -37.1821,-71.75 z"
       style="fill:#a7a9ac;fill-opacity:1"
       sodipodi:nodetypes="cscccssccccccscccccccscscscscssscccssssscccssscscscccccscccsssccscssscsccscccc" />
    <path
       inkscape:connector-curvature="0"
       id="path3053"
       d="m -806.79605,843.4287 c -26.7459,-3.9234 -52.2795,-19.2707 -68.3683,-41.09359 -5.5827,-7.5724 -12.3768,-20.8702 -15.24,-29.8284 -4.3812,-13.7082 -4.708,-17.221 -4.6502,-50 0.055,-30.9834 0.1,-31.664 2.7509,-41.5 4.9044,-18.195 13.0161,-32.6024 25.9905,-46.16195 19.7951,-20.6881 47.3285,-32.3381 76.4269,-32.3381 l 5.2762,0 0,121.00005 0,120.99999 -8.25,-0.1219 c -4.5375,-0.067 -10.8087,-0.4973 -13.936,-0.9561 z m 42.186,-119.76929 0,-121.15275 5.25,0 c 28.9072,0.5221 55.335,12.2689 73.6232,29.4908 9.6733,9.24955 15.2669,16.74795 20.8922,28.00645 9.6814,19.3769 11.6791,32.1673 10.9634,70.1955 -0.4245,22.5521 -0.8279,28.0737 -2.5431,34.8045 -6.4291,25.229 -22.2105,47.7396 -43.3116,61.77979 -16.5849,11.0352 -32.8709,16.3755 -53.1241,17.4197 l -11.75,0.6058 0,-121.15259 z m 449.5,119.36359 c -43.4087,-8.0815 -78.5726,-49.14809 -86.0684,-100.51629 -2.0284,-13.9005 -1.4811,-40.2156 1.0815,-52 3.7035,-17.0308 11.6851,-36.0388 20.7193,-49.3422 6.6329,-9.76745 20.3162,-23.26355 30.1751,-29.76235 13.5749,-8.9483 29.17,-14.3385 43.5925,-15.0672 l 6.5,-0.3283 0.5,111.50005 0.5,111.5 11.1928,0.2822 c 19.1017,0.4816 37.3529,-4.5279 54.1443,-14.8614 16.8827,-10.3898 35.5863,-31.5899 44.0898,-49.975 l 2.9813,-6.4458 0.046,21.431 0.046,21.431 -5.5314,7.2216 c -10.579,13.8119 -26.4019,26.85659 -42.2315,34.81669 -8.4364,4.2423 -22.3587,8.5163 -32.9336,10.1102 -12.018,1.8115 -39.0872,1.8147 -48.8035,0.01 z m -914.50005,-120.51629 0,-117.00005 47,0 47,0 0,117.00005 0,116.99999 -47,0 -47,0 z m 114,0 0,-117.00005 46.5,0 46.5001,0 0,117.00005 0,116.99999 -46.5001,0 -46.5,0 z m 114.0001,-0.055 0,-117.05565 29.30575,0.3056 29.3059,0.3055 7.7577,3.836 c 8.8006,4.3517 16.68,11.6641 20.8761,19.3737 5.9055,10.85045 5.7545,7.8722 5.7545,113.50045 l 0,96.78989 -46.5,0 -46.50005,0 z m 442.99995,115.11969 c -40.2703,-8.5045 -71.039,-39.80209 -80.1859,-81.56419 -1.8852,-8.6073 -1.8302,-64.3957 0.073,-74 4.1178,-20.7801 15.3201,-41.0454 30.5803,-55.32065 19.6304,-18.3638 43.8972,-28.1799 69.6636,-28.1799 l 8.869,0 0,120.50005 0,120.49999 -10.25,-0.07 c -5.7531,-0.039 -13.9791,-0.8579 -18.75,-1.8654 z m 49,-163.56469 0,-165.50005 46.5,0 46.5,0 0,165.50005 0,165.49999 -46.5,0 -46.5,0 z m 337,0 0,-165.50005 47,0 47,0 0,165.50005 0,165.49999 -47,0 -47,0 z m -106,-18 c 0,-33.27505 0.3375,-60.48615 0.75,-60.46915 0.4125,0.017 4.125,0.4681 8.25,1.0026 44.715,5.7935 80.4897,52.67645 83.7207,109.71655 l 0.5806,10.25 -46.6506,0 -46.6507,0 z"
       style="fill:#000000"
       sodipodi:nodetypes="cscccsscccscccccsssssccccssssccccssscccsssccccccccccccccccccccccccssscccccssssccccccccccccccccccccccccsscscccs" />
    <path
       transform="translate(-3190.605,-1311.814)"
       inkscape:connector-curvature="0"
       id="path3055"
       d="m 2038.495,2494.6907 c -47.9047,-2.926 -89.4327,-9.2325 -131.5,-19.9695 -25.2252,-6.4384 -34.1875,-9.2944 -36.845,-11.7413 -8.1105,-7.4678 -6.6522,-20.769 2.8294,-25.8076 5.1101,-2.7155 8.2728,-2.3672 28.3367,3.1209 54.6333,14.944 93.903,20.7934 155.4512,23.1552 45.1386,1.7321 94.4632,-0.5289 135.0081,-6.1889 29.493,-4.1171 52.81,-9.4404 108.2196,-24.7069 60.7663,-16.7423 97.3612,-21.4746 167,-21.5954 74.7811,-0.1298 109.6418,4.6053 182.0302,24.7248 42.9735,11.944 67.0382,17.3189 96.4698,21.5466 64.0716,9.2037 149.6941,8.9942 214,-0.5237 28.9875,-4.2904 51.5787,-9.3608 91.5,-20.5366 63.1782,-17.6863 92.9082,-22.5556 152.7511,-25.0182 46.9465,-1.9319 97.411,0.7335 135.8419,7.1748 21.8793,3.6672 34.9298,6.7653 77.7812,18.4646 77.7859,21.2371 119.3671,26.8781 198.1258,26.8781 82.0455,0 122.981,-6.0321 216,-31.8288 47.2702,-13.1094 80.3453,-18.2543 132.5,-20.6107 55.5671,-2.5106 111.4295,1.1145 156,10.1235 18.6535,3.7704 29.7259,6.5692 71,17.9471 33.2274,9.1597 54.9316,13.6798 94.3112,19.6415 5.1502,0.7797 11.266,6.61 12.2096,11.6396 1.5365,8.1903 -2.8952,16.3892 -10.1536,18.7847 -4.1779,1.3789 -7.6759,1.0214 -34.8672,-3.5636 -23.2983,-3.9285 -46.0005,-9.1264 -74,-16.9432 -77.1198,-21.5301 -111.5534,-26.5617 -181.5,-26.5219 -67.2,0.038 -103.3241,5.0474 -169.5455,23.5101 -87.1292,24.2919 -133.7953,30.3328 -225.3564,29.1721 -77.1738,-0.9783 -116.3597,-6.4899 -190.2757,-26.763 -61.3748,-16.8334 -79.2008,-20.3654 -121.8224,-24.1378 -19.2666,-1.7053 -94.5102,-1.6975 -114,0.012 -41.4276,3.6332 -62.711,7.7796 -116.5,22.6959 -62.9313,17.4517 -99.2846,23.8551 -155.9829,27.4754 -20.4998,1.3089 -84.1191,1.3106 -105.5171,0 -55.4299,-3.3878 -94.0578,-10.2984 -159.9546,-28.6158 -43.332,-12.0452 -65.1598,-16.5936 -95.0454,-19.8053 -44.2664,-4.7573 -104.1997,-4.7486 -148.9956,0.021 -29.8845,3.1822 -49.0065,7.2113 -97.2961,20.5008 -47.9738,13.2027 -71.3778,18.2971 -105.2083,22.9009 -32.3267,4.3992 -46.2477,5.1804 -97.5,5.4714 -27.225,0.1545 -52.2,0.116 -55.5,-0.086 z m -5,-111.4558 c -42.411,-2.8147 -72.8973,-8.4547 -126.5,-23.4026 -43.2857,-12.0709 -65.7295,-17.1033 -95.8803,-21.4987 -7.9091,-1.1529 -15.6362,-2.7457 -17.1712,-3.5395 -10.3416,-5.3479 -10.238,-21.5702 0.1752,-27.4228 3.6794,-2.0679 4.945,-2.2489 11.7499,-1.6806 22.3685,1.8681 58.8582,9.6267 106.6379,22.6738 40.249,10.9907 56.5645,14.8589 75.4885,17.8973 35.0927,5.6345 83.7583,8.0174 127.1476,6.2258 54.1191,-2.2346 80.61,-6.3361 131.2023,-20.3135 55.0027,-15.196 78.978,-20.6663 110.6501,-25.2464 42.8394,-6.195 93.6591,-8.6143 142.2639,-6.7724 69.5651,2.6361 109.0076,8.9874 181.2361,29.184 59.2387,16.5643 84.9657,20.7784 141.2694,23.1397 21.7591,0.9126 35.001,0.9138 57.5,0.01 54.2422,-2.1899 80.2406,-6.206 131.3522,-20.2903 56.6263,-15.604 78.8441,-20.6566 111.3784,-25.329 67.8737,-9.7475 154.4631,-9.7403 222,0.018 33.1411,4.7888 55.7946,9.9214 110,24.9227 51.6553,14.2957 77.9883,18.3915 132.9315,20.6762 21.8793,0.9099 35.0153,0.9098 57,-4e-4 58.0873,-2.4046 81.3459,-6.3164 148.5685,-24.987 39.8373,-11.0646 67.0328,-16.9804 97.1343,-21.1293 71.7311,-9.8869 164.8988,-8.9098 231.818,2.4312 28.7017,4.8641 78.9537,16.964 89.1376,21.4629 5.5341,2.4448 8.4101,7.2531 8.4101,14.0609 0,6.7294 -2.6668,11.1762 -8.3534,13.929 -5.6357,2.7283 -6.7051,2.6591 -20.9704,-1.3566 -30.2607,-8.5182 -58.6605,-14.7499 -84.1762,-18.4703 -65.0088,-9.479 -150.5826,-9.5017 -215.4273,-0.057 -27.8803,4.0608 -50.108,9.0249 -91.5727,20.4509 -80.2301,22.1083 -112.3406,26.2543 -195.2707,25.2128 -68.5772,-0.8613 -98.5392,-5.0628 -162.3195,-22.7619 -72.8894,-20.2269 -105.2227,-25.8864 -165.9098,-29.0407 -24.7288,-1.2852 -82.8552,-0.6807 -104.5,1.0869 -48.4388,3.9558 -83.1014,10.6161 -145.4098,27.9402 -69.3633,19.2855 -106.1172,23.7757 -186.4433,22.7771 -70.6691,-0.8785 -98.5521,-4.9581 -169.3502,-24.7776 -72.0594,-20.1768 -113.721,-26.3834 -185.2967,-27.6093 -61.5041,-1.0534 -106.3988,2.5925 -156,12.6689 -19.0133,3.8625 -31.1094,6.9278 -72.8342,18.4569 -45.4988,12.572 -74.472,17.611 -117.9953,20.5214 -17.5097,1.1709 -85.715,1.1309 -103.6705,-0.061 z m -39.1,-112.3142 c -2.9021,-2.9021 -3.4,-4.0882 -3.4,-8.1 0,-4.0118 0.4979,-5.1979 3.4,-8.1 l 3.4,-3.4 81.8555,0 81.8555,0 33.989,-34 33.989,-34 15.7907,0 15.7907,0 -1.1398,2.25 c -1.5979,3.1545 -83.8316,85.562 -87.1309,87.3152 -2.2856,1.2144 -15.9324,1.4348 -88.85,1.4348 l -86.1497,0 z m 2101.5532,1.9345 c -1.7564,-0.9554 -15.6335,-23.1909 -44.7162,-71.6491 l -42.1694,-70.2636 4.7278,-5.0609 c 2.6003,-2.7835 6.3676,-7.0047 8.3717,-9.3804 l 3.6438,-4.3196 43.803,72.8196 c 42.9503,71.4021 43.8037,72.9233 43.8445,78.1515 0.037,4.7833 -0.2945,5.6324 -3.2242,8.25 -3.6919,3.2988 -9.7537,3.9153 -14.281,1.4525 z m -1798.7348,-355.7098 -5.179,-6.9439 32.4803,-53.7913 32.4803,-53.7914 0,-53.6333 0,-53.6333 2.75,-3.0141 c 2.2921,-2.5123 11.2012,-6.1783 53.5026,-22.0158 l 50.7526,-19.0016 22.2749,0 c 24.3576,0 25.2112,0.1818 28.2256,6.011 1.2845,2.4839 1.4943,12.833 1.4943,73.6949 l 0,70.8053 33.5,33.4888 c 18.425,18.4188 33.5,33.2554 33.5,32.9702 0,-0.2852 4.697,-24.7488 10.4377,-54.3636 9.0384,-46.6267 10.7477,-54.1786 12.75,-56.3331 1.2718,-1.3685 23.3498,-13.0157 49.0623,-25.8829 l 46.75,-23.3948 0,-148.421 0,-148.421 2.8792,-2.8269 c 1.7105,-1.6794 16.6278,-9.2746 36.75,-18.7113 18.6289,-8.7364 34.8833,-16.5092 36.1208,-17.273 l 2.25,-1.3887 0,-63.5729 0,-63.5729 41.0381,-69.7761 41.0382,-69.7761 9.9465,-71.8779 c 5.4706,-39.53293 10.4147,-73.54292 10.987,-75.57779 1.4083,-5.00792 5.5148,-7.80023 11.4715,-7.80023 8.6287,0 7.5046,-2.54253 33.9393,76.76162 20.855,62.5654 24.0112,71.3004 25.9134,71.7184 6.0973,1.3397 197.2386,22.3399 197.8026,21.732 0.3634,-0.3916 7.0297,-22.312 14.8139,-48.712 7.7843,-26.4 14.6018,-49.423 15.1499,-51.1622 1.3475,-4.275 5.4306,-8.1592 9.35,-8.8945 4.0557,-0.7608 9.8534,1.5646 11.9755,4.8032 0.8698,1.3275 8.1259,31.4026 16.1246,66.8335 l 14.5433,64.42 15.9805,99.944 c 8.7893,54.9693 16.0807,100.0313 16.2031,100.1379 0.1224,0.1066 8.8962,4.5271 19.4973,9.8233 13.1538,6.5715 19.4178,9.2271 19.7254,8.3622 0.2479,-0.6971 6.9301,-24.7944 14.8495,-53.5497 9.1866,-33.3569 15.0778,-53.0445 16.2746,-54.388 2.7287,-3.0632 7.7433,-4.9062 11.3737,-4.1801 7.2088,1.4417 7.2997,1.6718 23.2824,58.9321 l 14.7707,52.9183 -0.025,134.0107 -0.025,134.0107 17.3913,17.37 c 17.3783,17.357 17.3924,17.3682 18.9011,14.9893 0.8304,-1.3094 11.8986,-20.9583 24.5961,-43.6643 l 23.0863,-41.2836 9.9994,-44.2164 c 5.4996,-24.319 10.6393,-45.6082 11.4214,-47.3092 1.8492,-4.0217 7.5832,-6.8214 12.1977,-5.9557 7.3281,1.3748 7.3458,1.4141 23.2959,51.5485 l 14.7937,46.5 40.7353,84.5 c 22.4044,46.475 40.9739,85.0625 41.2656,85.75 0.3877,0.9142 -0.9726,1.25 -5.0643,1.25 -30.9843,27.6228 -36.8142,-33.0109 -56.8535,-74.7422 l -42.6215,-88.7578 -7.6416,-23.8473 c -4.2029,-13.116 -7.7979,-23.691 -7.9889,-23.5 -0.191,0.191 -2.8234,11.1473 -5.8496,24.3473 l -5.5024,24 -29.1384,52 c -16.0262,28.6 -30.1689,53.0461 -31.4284,54.3247 -2.9772,3.0223 -9.2894,3.9121 -13.1825,1.8583 -1.602,-0.8451 -14.7252,-13.4016 -29.1627,-27.9032 l -26.25,-26.3667 0,-136.4221 0,-136.4222 -8.1027,-29.0344 c -4.4566,-15.9689 -8.4124,-29.5978 -8.7909,-30.2863 -0.3784,-0.6885 -5.3414,15.7365 -11.029,36.5 -5.6875,20.7635 -11.0173,39.2342 -11.844,41.0459 -1.78,3.9009 -5.7612,6.206 -10.7186,6.206 -4.9039,0 -64.49,-29.787 -66.8786,-33.4325 -1.1299,-1.7244 -6.7844,-34.6764 -18.1528,-105.786 -15.3104,-95.7665 -17.1819,-106.2449 -25.7207,-144.0084 -5.0649,-22.3998 -9.5086,-40.3998 -9.875,-40 -0.3663,0.3998 -5.0298,15.5769 -10.3634,33.7269 -10.2265,34.8007 -11.5178,37.6903 -17.4148,38.9684 -2.3978,0.5197 -221.4393,-23.8228 -225.3156,-25.0397 -4.5301,-1.4222 -6.7621,-6.8108 -22.9469,-55.3993 -8.9824,-26.9662 -16.5601,-49.0289 -16.8393,-49.0282 -0.2793,7e-4 -3.3968,21.0382 -6.9279,46.75 -3.5311,25.7118 -6.7575,47.9698 -7.1697,49.4621 -0.4122,1.4923 -19.0106,33.757 -41.3298,71.6992 l -40.5813,68.9859 0,65.995 0,65.995 -2.3348,2.7145 c -1.5552,1.8079 -14.4955,8.4658 -38.75,19.9372 l -36.4152,17.2228 -0.2533,148.2375 c -0.2439,142.7341 -0.3224,148.3325 -2.1139,150.7918 -1.2586,1.7278 -17.355,10.3447 -49.7467,26.631 l -47.8861,24.0768 -12.1031,62.4241 -12.1031,62.4242 -3.1627,2.8258 c -3.6156,3.2306 -9.3773,3.8077 -13.9308,1.3953 -4.1556,-2.2017 -89.95,-88.6911 -91.146,-91.8845 -0.7005,-1.8706 -1.0543,-25.274 -1.0543,-69.75 l 0,-66.9349 -10.6611,0 -10.6612,0 -44.8229,16.75 -44.823,16.75 -0.016,49.0066 c -0.01,26.9536 -0.4297,50.4493 -0.9354,52.2127 -1.4224,4.9596 -56.9025,96.4122 -60.444,99.6349 -1.7251,1.5698 -6.3096,5.6803 -10.1878,9.1343 l -7.0513,6.28 -5.179,-6.9438 z"
       style="fill:#086fa1;fill-opacity:1"
       sodipodi:nodetypes="csssssssssssssssssssssscssssssscsscsssssscccscscssssssssscssssssssssscsssssssssscssssccssscccccccccscscscsccsccccccccccscssscssssscccssscccccscssccscccscssscsscscccscscscsscsccccssscsscscccscssscsscssssssssccccscsssccccccscccccccssccc"
       clip-path="url(#clipPath4216)"
       inkscape:export-xdpi="90"
       inkscape:export-ydpi="90" />
  </g>
</svg>
